<?xml version="1.0" encoding="UTF-8" standalone="no"?>
<svg
   xmlns:dc="http://purl.org/dc/elements/1.1/"
   xmlns:cc="http://creativecommons.org/ns#"
   xmlns:rdf="http://www.w3.org/1999/02/22-rdf-syntax-ns#"
   xmlns:svg="http://www.w3.org/2000/svg"
   xmlns="http://www.w3.org/2000/svg"
   id="svg8"
   version="1.1"
   viewBox="0 0 90.497871 65.304466"
   height="65.304466mm"
   width="90.497871mm">
  <defs
     id="defs2" />
  <metadata
     id="metadata5">
    <rdf:RDF>
      <cc:Work
         rdf:about="">
        <dc:format>image/svg+xml</dc:format>
        <dc:type
           rdf:resource="http://purl.org/dc/dcmitype/StillImage" />
        <dc:title></dc:title>
      </cc:Work>
    </rdf:RDF>
  </metadata>
  <g
     id="layer2">
    <flowRoot
       style="fill:black;fill-opacity:1;stroke:none;font-family:sans-serif;font-style:normal;font-weight:normal;font-size:40px;line-height:1.25;letter-spacing:0px;word-spacing:0px"
       id="flowRoot4550"
       xml:space="preserve"><flowRegion
         id="flowRegion4552"><rect
           y="-28.630816"
           x="-51.246666"
           height="337.82343"
           width="435.25952"
           id="rect4554" /></flowRegion><flowPara
         id="flowPara4556" /></flowRoot>  </g>
  <g
     transform="translate(-46.406502,-13.733469)"
     id="layer1">
    <g
       id="text12"
       style="font-style:normal;font-weight:normal;font-size:10.58333302px;line-height:1.25;font-family:sans-serif;letter-spacing:0px;word-spacing:0px;fill:#000000;fill-opacity:1;stroke:none;stroke-width:0.26458332"
       aria-label="Manaaki Whenua
Landcare Research
Web Developer
2010-2021
S-map Online">
      <path
         id="path893"
         style="font-style:normal;font-variant:normal;font-weight:normal;font-stretch:normal;font-family:'Nimbus Sans';-inkscape-font-specification:'Nimbus Sans';text-align:center;text-anchor:middle;fill:#ffffff;fill-opacity:1;stroke-width:0.26458332"
         d="m 55.370541,21.448719 2.169584,-6.466416 v 6.466416 h 0.931333 v -7.71525 h -1.36525 l -2.243667,6.720417 -2.286,-6.720417 h -1.36525 v 7.71525 h 0.931334 v -6.466416 l 2.19075,6.466416 z" />
      <path
         id="path895"
         style="font-style:normal;font-variant:normal;font-weight:normal;font-stretch:normal;font-family:'Nimbus Sans';-inkscape-font-specification:'Nimbus Sans';text-align:center;text-anchor:middle;fill:#ffffff;fill-opacity:1;stroke-width:0.26458332"
         d="m 64.895522,20.930136 c -0.09525,0.02117 -0.137583,0.02117 -0.190499,0.02117 -0.306917,0 -0.47625,-0.15875 -0.47625,-0.433916 v -3.259667 c 0,-0.98425 -0.719667,-1.513416 -2.084917,-1.513416 -0.814917,0 -1.4605,0.232833 -1.8415,0.645583 -0.254,0.28575 -0.359833,0.60325 -0.381,1.153583 h 0.889 c 0.07408,-0.677333 0.47625,-0.98425 1.30175,-0.98425 0.804333,0 1.23825,0.296333 1.23825,0.8255 v 0.232833 c -0.01058,0.381 -0.201083,0.518584 -0.92075,0.613834 -1.248833,0.15875 -1.439333,0.201083 -1.778,0.338666 -0.645583,0.275167 -0.973667,0.762 -0.973667,1.481667 0,1.005417 0.6985,1.640417 1.820334,1.640417 0.6985,0 1.259416,-0.243417 1.883833,-0.814917 0.0635,0.5715 0.338667,0.814917 0.910167,0.814917 0.1905,0 0.306916,-0.02117 0.603249,-0.09525 z m -1.545166,-1.227667 c 0,0.296333 -0.08467,0.47625 -0.34925,0.719667 -0.359833,0.328083 -0.79375,0.497416 -1.312333,0.497416 -0.687917,0 -1.090084,-0.328083 -1.090084,-0.889 0,-0.582083 0.381,-0.878416 1.3335,-1.016 0.941917,-0.127 1.121834,-0.169333 1.418167,-0.306916 z" />
      <path
         id="path897"
         style="font-style:normal;font-variant:normal;font-weight:normal;font-stretch:normal;font-family:'Nimbus Sans';-inkscape-font-specification:'Nimbus Sans';text-align:center;text-anchor:middle;fill:#ffffff;fill-opacity:1;stroke-width:0.26458332"
         d="m 65.858603,15.903053 v 5.545666 h 0.889 v -3.058583 c 0,-1.132417 0.592667,-1.87325 1.502834,-1.87325 0.6985,0 1.143,0.423333 1.143,1.090083 v 3.84175 h 0.878416 v -4.191 c 0,-0.92075 -0.687916,-1.513416 -1.756833,-1.513416 -0.8255,0 -1.354667,0.3175 -1.8415,1.090083 v -0.931333 z" />
      <path
         id="path899"
         style="font-style:normal;font-variant:normal;font-weight:normal;font-stretch:normal;font-family:'Nimbus Sans';-inkscape-font-specification:'Nimbus Sans';text-align:center;text-anchor:middle;fill:#ffffff;fill-opacity:1;stroke-width:0.26458332"
         d="m 76.664185,20.930136 c -0.09525,0.02117 -0.137583,0.02117 -0.1905,0.02117 -0.306917,0 -0.47625,-0.15875 -0.47625,-0.433916 v -3.259667 c 0,-0.98425 -0.719667,-1.513416 -2.084917,-1.513416 -0.814916,0 -1.4605,0.232833 -1.8415,0.645583 -0.254,0.28575 -0.359833,0.60325 -0.381,1.153583 h 0.889 c 0.07408,-0.677333 0.47625,-0.98425 1.30175,-0.98425 0.804334,0 1.23825,0.296333 1.23825,0.8255 v 0.232833 c -0.01058,0.381 -0.201083,0.518584 -0.92075,0.613834 -1.248833,0.15875 -1.439333,0.201083 -1.778,0.338666 -0.645583,0.275167 -0.973666,0.762 -0.973666,1.481667 0,1.005417 0.6985,1.640417 1.820333,1.640417 0.6985,0 1.259417,-0.243417 1.883833,-0.814917 0.0635,0.5715 0.338667,0.814917 0.910167,0.814917 0.1905,0 0.306917,-0.02117 0.60325,-0.09525 z m -1.545167,-1.227667 c 0,0.296333 -0.08467,0.47625 -0.34925,0.719667 -0.359833,0.328083 -0.79375,0.497416 -1.312333,0.497416 -0.687917,0 -1.090083,-0.328083 -1.090083,-0.889 0,-0.582083 0.381,-0.878416 1.3335,-1.016 0.941916,-0.127 1.121833,-0.169333 1.418166,-0.306916 z" />
      <path
         id="path901"
         style="font-style:normal;font-variant:normal;font-weight:normal;font-stretch:normal;font-family:'Nimbus Sans';-inkscape-font-specification:'Nimbus Sans';text-align:center;text-anchor:middle;fill:#ffffff;fill-opacity:1;stroke-width:0.26458332"
         d="m 82.548516,20.930136 c -0.09525,0.02117 -0.137584,0.02117 -0.1905,0.02117 -0.306917,0 -0.47625,-0.15875 -0.47625,-0.433916 v -3.259667 c 0,-0.98425 -0.719667,-1.513416 -2.084917,-1.513416 -0.814917,0 -1.4605,0.232833 -1.8415,0.645583 -0.254,0.28575 -0.359833,0.60325 -0.381,1.153583 h 0.889 c 0.07408,-0.677333 0.47625,-0.98425 1.30175,-0.98425 0.804333,0 1.23825,0.296333 1.23825,0.8255 v 0.232833 c -0.01058,0.381 -0.201083,0.518584 -0.92075,0.613834 -1.248833,0.15875 -1.439333,0.201083 -1.778,0.338666 -0.645583,0.275167 -0.973666,0.762 -0.973666,1.481667 0,1.005417 0.698499,1.640417 1.820333,1.640417 0.6985,0 1.259416,-0.243417 1.883833,-0.814917 0.0635,0.5715 0.338667,0.814917 0.910167,0.814917 0.1905,0 0.306916,-0.02117 0.60325,-0.09525 z m -1.545167,-1.227667 c 0,0.296333 -0.08467,0.47625 -0.34925,0.719667 -0.359833,0.328083 -0.79375,0.497416 -1.312333,0.497416 -0.687917,0 -1.090084,-0.328083 -1.090084,-0.889 0,-0.582083 0.381,-0.878416 1.3335,-1.016 0.941917,-0.127 1.121834,-0.169333 1.418167,-0.306916 z" />
      <path
         id="path903"
         style="font-style:normal;font-variant:normal;font-weight:normal;font-stretch:normal;font-family:'Nimbus Sans';-inkscape-font-specification:'Nimbus Sans';text-align:center;text-anchor:middle;fill:#ffffff;fill-opacity:1;stroke-width:0.26458332"
         d="m 84.263013,13.733469 h -0.878416 v 7.71525 h 0.878416 v -2.159 l 0.85725,-0.846667 1.87325,3.005667 h 1.090083 l -2.264833,-3.630083 1.926167,-1.915583 h -1.132417 l -2.3495,2.349499 z" />
      <path
         id="path905"
         style="font-style:normal;font-variant:normal;font-weight:normal;font-stretch:normal;font-family:'Nimbus Sans';-inkscape-font-specification:'Nimbus Sans';text-align:center;text-anchor:middle;fill:#ffffff;fill-opacity:1;stroke-width:0.26458332"
         d="m 89.713392,15.903053 h -0.878416 v 5.545666 h 0.878416 z m 0,-2.169584 h -0.888999 v 1.11125 h 0.888999 z" />
      <path
         id="path907"
         style="font-style:normal;font-variant:normal;font-weight:normal;font-stretch:normal;font-family:'Nimbus Sans';-inkscape-font-specification:'Nimbus Sans';text-align:center;text-anchor:middle;fill:#ffffff;fill-opacity:1;stroke-width:0.26458332"
         d="m 101.29154,21.448719 1.95792,-7.71525 h -1.10067 l -1.41817,6.265333 -1.756829,-6.265333 h -1.058333 l -1.7145,6.265333 -1.449917,-6.265333 h -1.100666 l 1.979083,7.71525 h 1.0795 l 1.725083,-6.339416 1.777999,6.339416 z" />
      <path
         id="path909"
         style="font-style:normal;font-variant:normal;font-weight:normal;font-stretch:normal;font-family:'Nimbus Sans';-inkscape-font-specification:'Nimbus Sans';text-align:center;text-anchor:middle;fill:#ffffff;fill-opacity:1;stroke-width:0.26458332"
         d="m 104.10667,13.733469 v 7.71525 h 0.87842 v -3.058583 c 0,-1.132417 0.59266,-1.87325 1.50283,-1.87325 0.29633,0 0.5715,0.08467 0.78317,0.243416 0.254,0.1905 0.35983,0.455084 0.35983,0.846667 v 3.84175 h 0.87842 v -4.191 c 0,-0.931333 -0.66675,-1.513416 -1.74625,-1.513416 -0.78317,0 -1.25942,0.243416 -1.778,0.92075 v -2.931584 z" />
      <path
         id="path911"
         style="font-style:normal;font-variant:normal;font-weight:normal;font-stretch:normal;font-family:'Nimbus Sans';-inkscape-font-specification:'Nimbus Sans';text-align:center;text-anchor:middle;fill:#ffffff;fill-opacity:1;stroke-width:0.26458332"
         d="m 114.67942,18.972219 c 0,-0.846667 -0.0635,-1.354667 -0.22225,-1.767417 -0.35984,-0.910166 -1.2065,-1.460499 -2.24367,-1.460499 -1.54517,0 -2.54,1.174749 -2.54,3.005666 0,1.830917 0.9525,2.942167 2.51883,2.942167 1.27,0 2.14842,-0.719667 2.37067,-1.926167 h -0.889 c -0.24342,0.73025 -0.74083,1.11125 -1.44992,1.11125 -0.56091,0 -1.03716,-0.254 -1.3335,-0.719667 -0.21166,-0.3175 -0.28575,-0.635 -0.29633,-1.185333 z m -4.064,-0.719667 c 0.0741,-1.026583 0.6985,-1.693333 1.5875,-1.693333 0.89958,0 1.524,0.6985 1.524,1.693333 z" />
      <path
         id="path913"
         style="font-style:normal;font-variant:normal;font-weight:normal;font-stretch:normal;font-family:'Nimbus Sans';-inkscape-font-specification:'Nimbus Sans';text-align:center;text-anchor:middle;fill:#ffffff;fill-opacity:1;stroke-width:0.26458332"
         d="m 115.87533,15.903053 v 5.545666 h 0.889 v -3.058583 c 0,-1.132417 0.59267,-1.87325 1.50284,-1.87325 0.6985,0 1.143,0.423333 1.143,1.090083 v 3.84175 h 0.87841 v -4.191 c 0,-0.92075 -0.68791,-1.513416 -1.75683,-1.513416 -0.8255,0 -1.35467,0.3175 -1.8415,1.090083 v -0.931333 z" />
      <path
         id="path915"
         style="font-style:normal;font-variant:normal;font-weight:normal;font-stretch:normal;font-family:'Nimbus Sans';-inkscape-font-specification:'Nimbus Sans';text-align:center;text-anchor:middle;fill:#ffffff;fill-opacity:1;stroke-width:0.26458332"
         d="m 126.12,21.448719 v -5.545666 h -0.87842 v 3.143249 c 0,1.132417 -0.59267,1.87325 -1.51342,1.87325 -0.6985,0 -1.143,-0.423333 -1.143,-1.090083 v -3.926416 h -0.87841 v 4.275666 c 0,0.92075 0.68791,1.513417 1.76741,1.513417 0.81492,0 1.3335,-0.28575 1.85209,-1.016 v 0.772583 z" />
      <path
         id="path917"
         style="font-style:normal;font-variant:normal;font-weight:normal;font-stretch:normal;font-family:'Nimbus Sans';-inkscape-font-specification:'Nimbus Sans';text-align:center;text-anchor:middle;fill:#ffffff;fill-opacity:1;stroke-width:0.26458332"
         d="m 132.56524,20.930136 c -0.0952,0.02117 -0.13758,0.02117 -0.1905,0.02117 -0.30691,0 -0.47625,-0.15875 -0.47625,-0.433916 v -3.259667 c 0,-0.98425 -0.71966,-1.513416 -2.08491,-1.513416 -0.81492,0 -1.4605,0.232833 -1.8415,0.645583 -0.254,0.28575 -0.35984,0.60325 -0.381,1.153583 h 0.889 c 0.0741,-0.677333 0.47625,-0.98425 1.30175,-0.98425 0.80433,0 1.23825,0.296333 1.23825,0.8255 v 0.232833 c -0.0106,0.381 -0.20109,0.518584 -0.92075,0.613834 -1.24884,0.15875 -1.43934,0.201083 -1.778,0.338666 -0.64559,0.275167 -0.97367,0.762 -0.97367,1.481667 0,1.005417 0.6985,1.640417 1.82033,1.640417 0.6985,0 1.25942,-0.243417 1.88384,-0.814917 0.0635,0.5715 0.33866,0.814917 0.91016,0.814917 0.1905,0 0.30692,-0.02117 0.60325,-0.09525 z m -1.54516,-1.227667 c 0,0.296333 -0.0847,0.47625 -0.34925,0.719667 -0.35984,0.328083 -0.79375,0.497416 -1.31234,0.497416 -0.68791,0 -1.09008,-0.328083 -1.09008,-0.889 0,-0.582083 0.381,-0.878416 1.3335,-1.016 0.94192,-0.127 1.12183,-0.169333 1.41817,-0.306916 z" />
      <path
         id="path919"
         style="font-style:normal;font-variant:normal;font-weight:normal;font-stretch:normal;font-family:'Nimbus Sans';-inkscape-font-specification:'Nimbus Sans';text-align:center;text-anchor:middle;fill:#ffffff;fill-opacity:1;stroke-width:0.26458332"
         d="m 47.390752,27.553981 h -0.98425 v 7.71525 h 4.79425 v -0.867833 h -3.81 z" />
      <path
         id="path921"
         style="font-style:normal;font-variant:normal;font-weight:normal;font-stretch:normal;font-family:'Nimbus Sans';-inkscape-font-specification:'Nimbus Sans';text-align:center;text-anchor:middle;fill:#ffffff;fill-opacity:1;stroke-width:0.26458332"
         d="m 57.137982,34.750648 c -0.09525,0.02117 -0.137583,0.02117 -0.1905,0.02117 -0.306916,0 -0.47625,-0.15875 -0.47625,-0.433916 v -3.259667 c 0,-0.98425 -0.719666,-1.513417 -2.084916,-1.513417 -0.814917,0 -1.4605,0.232834 -1.8415,0.645584 -0.254,0.28575 -0.359834,0.60325 -0.381,1.153583 h 0.889 c 0.07408,-0.677333 0.47625,-0.98425 1.30175,-0.98425 0.804333,0 1.23825,0.296333 1.23825,0.8255 v 0.232833 c -0.01058,0.381 -0.201084,0.518584 -0.92075,0.613834 -1.248834,0.15875 -1.439334,0.201083 -1.778,0.338666 -0.645584,0.275167 -0.973667,0.762 -0.973667,1.481667 0,1.005417 0.6985,1.640417 1.820333,1.640417 0.6985,0 1.259417,-0.243417 1.883834,-0.814917 0.0635,0.5715 0.338666,0.814917 0.910166,0.814917 0.1905,0 0.306917,-0.02117 0.60325,-0.09525 z m -1.545166,-1.227667 c 0,0.296333 -0.08467,0.47625 -0.34925,0.719667 -0.359834,0.328083 -0.79375,0.497416 -1.312334,0.497416 -0.687916,0 -1.090083,-0.328083 -1.090083,-0.889 0,-0.582083 0.381,-0.878416 1.3335,-1.016 0.941917,-0.127 1.121833,-0.169333 1.418167,-0.306916 z" />
      <path
         id="path923"
         style="font-style:normal;font-variant:normal;font-weight:normal;font-stretch:normal;font-family:'Nimbus Sans';-inkscape-font-specification:'Nimbus Sans';text-align:center;text-anchor:middle;fill:#ffffff;fill-opacity:1;stroke-width:0.26458332"
         d="m 58.101063,29.723564 v 5.545667 h 0.889 v -3.058583 c 0,-1.132417 0.592667,-1.87325 1.502833,-1.87325 0.6985,0 1.143,0.423333 1.143,1.090083 v 3.84175 h 0.878417 v -4.191 c 0,-0.92075 -0.687917,-1.513417 -1.756833,-1.513417 -0.8255,0 -1.354667,0.3175 -1.8415,1.090084 v -0.931334 z" />
      <path
         id="path925"
         style="font-style:normal;font-variant:normal;font-weight:normal;font-stretch:normal;font-family:'Nimbus Sans';-inkscape-font-specification:'Nimbus Sans';text-align:center;text-anchor:middle;fill:#ffffff;fill-opacity:1;stroke-width:0.26458332"
         d="m 68.48331,27.553981 h -0.878416 v 2.868083 c -0.370417,-0.560916 -0.963084,-0.85725 -1.703917,-0.85725 -1.439333,0 -2.38125,1.153584 -2.38125,2.921 0,1.87325 0.910167,3.026834 2.413,3.026834 0.762,0 1.291167,-0.28575 1.767417,-0.973667 v 0.73025 h 0.783166 z m -2.434166,2.836333 c 0.9525,0 1.55575,0.836084 1.55575,2.169584 0,1.280583 -0.613834,2.12725 -1.545167,2.12725 -0.973666,0 -1.61925,-0.85725 -1.61925,-2.148417 0,-1.291167 0.645584,-2.148417 1.608667,-2.148417 z" />
      <path
         id="path927"
         style="font-style:normal;font-variant:normal;font-weight:normal;font-stretch:normal;font-family:'Nimbus Sans';-inkscape-font-specification:'Nimbus Sans';text-align:center;text-anchor:middle;fill:#ffffff;fill-opacity:1;stroke-width:0.26458332"
         d="m 74.113641,31.586231 c -0.04233,-0.53975 -0.15875,-0.889 -0.370416,-1.195917 -0.381,-0.518583 -1.04775,-0.8255 -1.820334,-0.8255 -1.502833,0 -2.465916,1.185334 -2.465916,3.026834 0,1.788583 0.9525,2.921 2.455333,2.921 1.322917,0 2.159,-0.79375 2.264833,-2.148417 h -0.889 c -0.148166,0.889 -0.60325,1.3335 -1.354666,1.3335 -0.973667,0 -1.55575,-0.79375 -1.55575,-2.106083 0,-1.386417 0.5715,-2.211917 1.534583,-2.211917 0.740833,0 1.2065,0.433917 1.312333,1.2065 z" />
      <path
         id="path929"
         style="font-style:normal;font-variant:normal;font-weight:normal;font-stretch:normal;font-family:'Nimbus Sans';-inkscape-font-specification:'Nimbus Sans';text-align:center;text-anchor:middle;fill:#ffffff;fill-opacity:1;stroke-width:0.26458332"
         d="m 80.156703,34.750648 c -0.09525,0.02117 -0.137583,0.02117 -0.1905,0.02117 -0.306917,0 -0.47625,-0.15875 -0.47625,-0.433916 v -3.259667 c 0,-0.98425 -0.719667,-1.513417 -2.084917,-1.513417 -0.814916,0 -1.4605,0.232834 -1.8415,0.645584 -0.254,0.28575 -0.359833,0.60325 -0.381,1.153583 h 0.889 c 0.07408,-0.677333 0.47625,-0.98425 1.30175,-0.98425 0.804334,0 1.23825,0.296333 1.23825,0.8255 v 0.232833 c -0.01058,0.381 -0.201083,0.518584 -0.92075,0.613834 -1.248833,0.15875 -1.439333,0.201083 -1.778,0.338666 -0.645583,0.275167 -0.973666,0.762 -0.973666,1.481667 0,1.005417 0.6985,1.640417 1.820333,1.640417 0.6985,0 1.259417,-0.243417 1.883833,-0.814917 0.0635,0.5715 0.338667,0.814917 0.910167,0.814917 0.1905,0 0.306917,-0.02117 0.60325,-0.09525 z m -1.545167,-1.227667 c 0,0.296333 -0.08467,0.47625 -0.34925,0.719667 -0.359833,0.328083 -0.79375,0.497416 -1.312333,0.497416 -0.687917,0 -1.090083,-0.328083 -1.090083,-0.889 0,-0.582083 0.381,-0.878416 1.3335,-1.016 0.941916,-0.127 1.121833,-0.169333 1.418166,-0.306916 z" />
      <path
         id="path931"
         style="font-style:normal;font-variant:normal;font-weight:normal;font-stretch:normal;font-family:'Nimbus Sans';-inkscape-font-specification:'Nimbus Sans';text-align:center;text-anchor:middle;fill:#ffffff;fill-opacity:1;stroke-width:0.26458332"
         d="m 81.1092,29.723564 v 5.545667 h 0.889 v -2.878667 c 0.01058,-1.3335 0.560917,-1.926166 1.778,-1.894416 v -0.899584 c -0.148166,-0.02117 -0.232833,-0.03175 -0.338666,-0.03175 -0.5715,0 -1.005417,0.338667 -1.513417,1.164167 v -1.005417 z" />
      <path
         id="path933"
         style="font-style:normal;font-variant:normal;font-weight:normal;font-stretch:normal;font-family:'Nimbus Sans';-inkscape-font-specification:'Nimbus Sans';text-align:center;text-anchor:middle;fill:#ffffff;fill-opacity:1;stroke-width:0.26458332"
         d="m 89.226596,32.792731 c 0,-0.846667 -0.0635,-1.354667 -0.22225,-1.767417 -0.359833,-0.910166 -1.2065,-1.4605 -2.243666,-1.4605 -1.545167,0 -2.54,1.17475 -2.54,3.005667 0,1.830917 0.9525,2.942167 2.518833,2.942167 1.27,0 2.148417,-0.719667 2.370667,-1.926167 h -0.889 c -0.243417,0.73025 -0.740834,1.11125 -1.449917,1.11125 -0.560917,0 -1.037167,-0.254 -1.3335,-0.719667 -0.211667,-0.3175 -0.28575,-0.635 -0.296333,-1.185333 z m -4.064,-0.719667 c 0.07408,-1.026583 0.6985,-1.693333 1.5875,-1.693333 0.899584,0 1.524,0.6985 1.524,1.693333 z" />
      <path
         id="path935"
         style="font-style:normal;font-variant:normal;font-weight:normal;font-stretch:normal;font-family:'Nimbus Sans';-inkscape-font-specification:'Nimbus Sans';text-align:center;text-anchor:middle;fill:#ffffff;fill-opacity:1;stroke-width:0.26458332"
         d="m 94.592343,31.946064 h 2.539999 c 0.878417,0 1.27,0.423334 1.27,1.375834 l -0.01058,0.687916 c 0,0.47625 0.08467,0.941917 0.22225,1.259417 h 1.195917 v -0.243417 c -0.370417,-0.254 -0.4445,-0.529166 -0.465667,-1.55575 -0.01058,-1.27 -0.211667,-1.651 -1.04775,-2.010833 0.867833,-0.433917 1.217083,-0.9525 1.217083,-1.8415 0,-1.3335 -0.8255,-2.06375 -2.3495,-2.06375 h -3.555999 v 7.71525 h 0.98425 z m 0,-0.867833 v -2.656416 h 2.381249 c 0.550334,0 0.867834,0.08467 1.11125,0.296333 0.264584,0.22225 0.402167,0.5715 0.402167,1.026583 0,0.92075 -0.465667,1.3335 -1.513417,1.3335 z" />
      <path
         id="path937"
         style="font-style:normal;font-variant:normal;font-weight:normal;font-stretch:normal;font-family:'Nimbus Sans';-inkscape-font-specification:'Nimbus Sans';text-align:center;text-anchor:middle;fill:#ffffff;fill-opacity:1;stroke-width:0.26458332"
         d="m 105.58841,32.792731 c 0,-0.846667 -0.0635,-1.354667 -0.22225,-1.767417 -0.35984,-0.910166 -1.2065,-1.4605 -2.24367,-1.4605 -1.54517,0 -2.54,1.17475 -2.54,3.005667 0,1.830917 0.9525,2.942167 2.51883,2.942167 1.27,0 2.14842,-0.719667 2.37067,-1.926167 h -0.889 c -0.24342,0.73025 -0.74083,1.11125 -1.44992,1.11125 -0.56091,0 -1.03716,-0.254 -1.3335,-0.719667 -0.21166,-0.3175 -0.28575,-0.635 -0.29633,-1.185333 z m -4.064,-0.719667 c 0.0741,-1.026583 0.6985,-1.693333 1.5875,-1.693333 0.89958,0 1.524,0.6985 1.524,1.693333 z" />
      <path
         id="path939"
         style="font-style:normal;font-variant:normal;font-weight:normal;font-stretch:normal;font-family:'Nimbus Sans';-inkscape-font-specification:'Nimbus Sans';text-align:center;text-anchor:middle;fill:#ffffff;fill-opacity:1;stroke-width:0.26458332"
         d="m 110.63664,31.268731 c -0.0106,-1.090083 -0.73025,-1.703917 -2.01084,-1.703917 -1.29116,0 -2.12725,0.66675 -2.12725,1.693334 0,0.867833 0.4445,1.280583 1.75684,1.598083 l 0.8255,0.201083 c 0.61383,0.148167 0.85725,0.370417 0.85725,0.762 0,0.529167 -0.51859,0.878417 -1.29117,0.878417 -0.47625,0 -0.87842,-0.137583 -1.10067,-0.370417 -0.13758,-0.15875 -0.20108,-0.3175 -0.254,-0.709083 h -0.93133 c 0.0423,1.280583 0.762,1.894417 2.21192,1.894417 1.397,0 2.286,-0.687917 2.286,-1.756834 0,-0.8255 -0.46567,-1.280583 -1.56634,-1.545166 l -0.84666,-0.201084 c -0.71967,-0.169333 -1.02659,-0.402166 -1.02659,-0.79375 0,-0.518583 0.45509,-0.836083 1.17475,-0.836083 0.70909,0 1.09009,0.306917 1.11125,0.889 z" />
      <path
         id="path941"
         style="font-style:normal;font-variant:normal;font-weight:normal;font-stretch:normal;font-family:'Nimbus Sans';-inkscape-font-specification:'Nimbus Sans';text-align:center;text-anchor:middle;fill:#ffffff;fill-opacity:1;stroke-width:0.26458332"
         d="m 116.72203,32.792731 c 0,-0.846667 -0.0635,-1.354667 -0.22225,-1.767417 -0.35983,-0.910166 -1.2065,-1.4605 -2.24366,-1.4605 -1.54517,0 -2.54,1.17475 -2.54,3.005667 0,1.830917 0.9525,2.942167 2.51883,2.942167 1.27,0 2.14842,-0.719667 2.37067,-1.926167 h -0.889 c -0.24342,0.73025 -0.74084,1.11125 -1.44992,1.11125 -0.56092,0 -1.03717,-0.254 -1.3335,-0.719667 -0.21167,-0.3175 -0.28575,-0.635 -0.29633,-1.185333 z m -4.064,-0.719667 c 0.0741,-1.026583 0.6985,-1.693333 1.5875,-1.693333 0.89959,0 1.524,0.6985 1.524,1.693333 z" />
      <path
         id="path943"
         style="font-style:normal;font-variant:normal;font-weight:normal;font-stretch:normal;font-family:'Nimbus Sans';-inkscape-font-specification:'Nimbus Sans';text-align:center;text-anchor:middle;fill:#ffffff;fill-opacity:1;stroke-width:0.26458332"
         d="m 122.76509,34.750648 c -0.0953,0.02117 -0.13758,0.02117 -0.1905,0.02117 -0.30691,0 -0.47625,-0.15875 -0.47625,-0.433916 v -3.259667 c 0,-0.98425 -0.71966,-1.513417 -2.08491,-1.513417 -0.81492,0 -1.4605,0.232834 -1.8415,0.645584 -0.254,0.28575 -0.35984,0.60325 -0.381,1.153583 h 0.889 c 0.0741,-0.677333 0.47625,-0.98425 1.30175,-0.98425 0.80433,0 1.23825,0.296333 1.23825,0.8255 v 0.232833 c -0.0106,0.381 -0.20109,0.518584 -0.92075,0.613834 -1.24884,0.15875 -1.43934,0.201083 -1.778,0.338666 -0.64559,0.275167 -0.97367,0.762 -0.97367,1.481667 0,1.005417 0.6985,1.640417 1.82033,1.640417 0.6985,0 1.25942,-0.243417 1.88384,-0.814917 0.0635,0.5715 0.33866,0.814917 0.91016,0.814917 0.1905,0 0.30692,-0.02117 0.60325,-0.09525 z m -1.54516,-1.227667 c 0,0.296333 -0.0847,0.47625 -0.34925,0.719667 -0.35984,0.328083 -0.79375,0.497416 -1.31234,0.497416 -0.68791,0 -1.09008,-0.328083 -1.09008,-0.889 0,-0.582083 0.381,-0.878416 1.3335,-1.016 0.94192,-0.127 1.12183,-0.169333 1.41817,-0.306916 z" />
      <path
         id="path945"
         style="font-style:normal;font-variant:normal;font-weight:normal;font-stretch:normal;font-family:'Nimbus Sans';-inkscape-font-specification:'Nimbus Sans';text-align:center;text-anchor:middle;fill:#ffffff;fill-opacity:1;stroke-width:0.26458332"
         d="m 123.71759,29.723564 v 5.545667 h 0.889 v -2.878667 c 0.0106,-1.3335 0.56092,-1.926166 1.778,-1.894416 v -0.899584 c -0.14817,-0.02117 -0.23283,-0.03175 -0.33867,-0.03175 -0.5715,0 -1.00541,0.338667 -1.51341,1.164167 v -1.005417 z" />
      <path
         id="path947"
         style="font-style:normal;font-variant:normal;font-weight:normal;font-stretch:normal;font-family:'Nimbus Sans';-inkscape-font-specification:'Nimbus Sans';text-align:center;text-anchor:middle;fill:#ffffff;fill-opacity:1;stroke-width:0.26458332"
         d="m 131.45397,31.586231 c -0.0423,-0.53975 -0.15875,-0.889 -0.37042,-1.195917 -0.381,-0.518583 -1.04775,-0.8255 -1.82033,-0.8255 -1.50283,0 -2.46592,1.185334 -2.46592,3.026834 0,1.788583 0.9525,2.921 2.45534,2.921 1.32291,0 2.159,-0.79375 2.26483,-2.148417 h -0.889 c -0.14817,0.889 -0.60325,1.3335 -1.35467,1.3335 -0.97366,0 -1.55575,-0.79375 -1.55575,-2.106083 0,-1.386417 0.5715,-2.211917 1.53459,-2.211917 0.74083,0 1.2065,0.433917 1.31233,1.2065 z" />
      <path
         id="path949"
         style="font-style:normal;font-variant:normal;font-weight:normal;font-stretch:normal;font-family:'Nimbus Sans';-inkscape-font-specification:'Nimbus Sans';text-align:center;text-anchor:middle;fill:#ffffff;fill-opacity:1;stroke-width:0.26458332"
         d="m 132.5017,27.553981 v 7.71525 h 0.87842 v -3.058583 c 0,-1.132417 0.59267,-1.87325 1.50283,-1.87325 0.29634,0 0.5715,0.08467 0.78317,0.243416 0.254,0.1905 0.35983,0.455084 0.35983,0.846667 v 3.84175 h 0.87842 v -4.191 c 0,-0.931333 -0.66675,-1.513417 -1.74625,-1.513417 -0.78317,0 -1.25942,0.243417 -1.778,0.92075 v -2.931583 z" />
      <path
         id="path951"
         style="font-style:normal;font-variant:normal;font-weight:normal;font-stretch:normal;font-family:'Nimbus Sans';-inkscape-font-specification:'Nimbus Sans';text-align:center;text-anchor:middle;fill:#ffffff;fill-opacity:1;stroke-width:0.26458332"
         d="m 63.376855,49.089743 1.957917,-7.71525 h -1.100667 l -1.418166,6.265333 -1.756834,-6.265333 h -1.058333 l -1.7145,6.265333 -1.449917,-6.265333 h -1.100666 l 1.979083,7.71525 h 1.0795 l 1.725083,-6.339417 1.778,6.339417 z" />
      <path
         id="path953"
         style="font-style:normal;font-variant:normal;font-weight:normal;font-stretch:normal;font-family:'Nimbus Sans';-inkscape-font-specification:'Nimbus Sans';text-align:center;text-anchor:middle;fill:#ffffff;fill-opacity:1;stroke-width:0.26458332"
         d="m 70.615824,46.613243 c 0,-0.846667 -0.0635,-1.354667 -0.22225,-1.767417 -0.359833,-0.910166 -1.2065,-1.4605 -2.243667,-1.4605 -1.545166,0 -2.54,1.17475 -2.54,3.005667 0,1.830917 0.9525,2.942167 2.518834,2.942167 1.27,0 2.148416,-0.719667 2.370666,-1.926167 h -0.889 c -0.243416,0.73025 -0.740833,1.11125 -1.449916,1.11125 -0.560917,0 -1.037167,-0.254 -1.3335,-0.719667 -0.211667,-0.3175 -0.28575,-0.635 -0.296334,-1.185333 z m -4.064,-0.719667 c 0.07408,-1.026583 0.6985,-1.693333 1.5875,-1.693333 0.899583,0 1.524,0.6985 1.524,1.693333 z" />
      <path
         id="path955"
         style="font-style:normal;font-variant:normal;font-weight:normal;font-stretch:normal;font-family:'Nimbus Sans';-inkscape-font-specification:'Nimbus Sans';text-align:center;text-anchor:middle;fill:#ffffff;fill-opacity:1;stroke-width:0.26458332"
         d="m 71.66356,41.374493 v 7.71525 h 0.79375 V 48.38066 c 0.423333,0.645583 0.98425,0.9525 1.756833,0.9525 1.4605,0 2.413,-1.195917 2.413,-3.037417 0,-1.799167 -0.899583,-2.910417 -2.370666,-2.910417 -0.762,0 -1.30175,0.28575 -1.7145,0.910167 v -2.921 z m 2.423583,2.836333 c 0.98425,0 1.61925,0.85725 1.61925,2.180167 0,1.259417 -0.656166,2.116667 -1.61925,2.116667 -0.941916,0 -1.545166,-0.846667 -1.545166,-2.148417 0,-1.30175 0.60325,-2.148417 1.545166,-2.148417 z" />
      <path
         id="path957"
         style="font-style:normal;font-variant:normal;font-weight:normal;font-stretch:normal;font-family:'Nimbus Sans';-inkscape-font-specification:'Nimbus Sans';text-align:center;text-anchor:middle;fill:#ffffff;fill-opacity:1;stroke-width:0.26458332"
         d="m 80.860473,49.089743 h 2.973917 c 1.947333,0 3.143249,-1.4605 3.143249,-3.862917 0,-2.391833 -1.185333,-3.852333 -3.143249,-3.852333 h -2.973917 z m 0.98425,-0.867833 v -5.979584 h 1.820333 c 1.524,0 2.328333,1.026584 2.328333,2.995084 0,1.957916 -0.804333,2.9845 -2.328333,2.9845 z" />
      <path
         id="path959"
         style="font-style:normal;font-variant:normal;font-weight:normal;font-stretch:normal;font-family:'Nimbus Sans';-inkscape-font-specification:'Nimbus Sans';text-align:center;text-anchor:middle;fill:#ffffff;fill-opacity:1;stroke-width:0.26458332"
         d="m 92.957202,46.613243 c 0,-0.846667 -0.0635,-1.354667 -0.22225,-1.767417 -0.359833,-0.910166 -1.2065,-1.4605 -2.243666,-1.4605 -1.545167,0 -2.54,1.17475 -2.54,3.005667 0,1.830917 0.9525,2.942167 2.518833,2.942167 1.27,0 2.148417,-0.719667 2.370666,-1.926167 h -0.888999 c -0.243417,0.73025 -0.740834,1.11125 -1.449917,1.11125 -0.560917,0 -1.037167,-0.254 -1.3335,-0.719667 -0.211667,-0.3175 -0.28575,-0.635 -0.296333,-1.185333 z m -4.064,-0.719667 c 0.07408,-1.026583 0.6985,-1.693333 1.5875,-1.693333 0.899584,0 1.524,0.6985 1.524,1.693333 z" />
      <path
         id="path961"
         style="font-style:normal;font-variant:normal;font-weight:normal;font-stretch:normal;font-family:'Nimbus Sans';-inkscape-font-specification:'Nimbus Sans';text-align:center;text-anchor:middle;fill:#ffffff;fill-opacity:1;stroke-width:0.26458332"
         d="m 96.269769,49.089743 2.12725,-5.545667 h -0.994833 l -1.566334,4.497917 -1.481666,-4.497917 h -0.994833 l 1.947333,5.545667 z" />
      <path
         id="path963"
         style="font-style:normal;font-variant:normal;font-weight:normal;font-stretch:normal;font-family:'Nimbus Sans';-inkscape-font-specification:'Nimbus Sans';text-align:center;text-anchor:middle;fill:#ffffff;fill-opacity:1;stroke-width:0.26458332"
         d="m 103.76274,46.613243 c 0,-0.846667 -0.0635,-1.354667 -0.22225,-1.767417 -0.35983,-0.910166 -1.2065,-1.4605 -2.24367,-1.4605 -1.545163,0 -2.539996,1.17475 -2.539996,3.005667 0,1.830917 0.9525,2.942167 2.518836,2.942167 1.27,0 2.14841,-0.719667 2.37066,-1.926167 h -0.889 c -0.24341,0.73025 -0.74083,1.11125 -1.44991,1.11125 -0.56092,0 -1.03717,-0.254 -1.333503,-0.719667 -0.211667,-0.3175 -0.28575,-0.635 -0.296333,-1.185333 z m -4.064,-0.719667 c 0.07408,-1.026583 0.6985,-1.693333 1.5875,-1.693333 0.89958,0 1.524,0.6985 1.524,1.693333 z" />
      <path
         id="path965"
         style="font-style:normal;font-variant:normal;font-weight:normal;font-stretch:normal;font-family:'Nimbus Sans';-inkscape-font-specification:'Nimbus Sans';text-align:center;text-anchor:middle;fill:#ffffff;fill-opacity:1;stroke-width:0.26458332"
         d="m 105.78414,41.374493 h -0.889 v 7.71525 h 0.889 z" />
      <path
         id="path967"
         style="font-style:normal;font-variant:normal;font-weight:normal;font-stretch:normal;font-family:'Nimbus Sans';-inkscape-font-specification:'Nimbus Sans';text-align:center;text-anchor:middle;fill:#ffffff;fill-opacity:1;stroke-width:0.26458332"
         d="m 109.40362,43.385326 c -1.56633,0 -2.49767,1.11125 -2.49767,2.973917 0,1.87325 0.93134,2.973917 2.50825,2.973917 1.56634,0 2.50825,-1.11125 2.50825,-2.931584 0,-1.926166 -0.91016,-3.01625 -2.51883,-3.01625 z m 0.0106,0.814917 c 0.99484,0 1.5875,0.814917 1.5875,2.19075 0,1.312333 -0.61383,2.12725 -1.5875,2.12725 -0.98425,0 -1.5875,-0.814917 -1.5875,-2.159 0,-1.344083 0.60325,-2.159 1.5875,-2.159 z" />
      <path
         id="path969"
         style="font-style:normal;font-variant:normal;font-weight:normal;font-stretch:normal;font-family:'Nimbus Sans';-inkscape-font-specification:'Nimbus Sans';text-align:center;text-anchor:middle;fill:#ffffff;fill-opacity:1;stroke-width:0.26458332"
         d="m 112.98078,51.39691 h 0.889 v -2.88925 c 0.46567,0.5715 0.98425,0.8255 1.70392,0.8255 1.43933,0 2.37067,-1.153584 2.37067,-2.921 0,-1.862667 -0.91017,-3.026834 -2.38125,-3.026834 -0.75142,0 -1.35467,0.338667 -1.76742,0.994834 v -0.836084 h -0.81492 z m 2.43417,-7.186084 c 0.97367,0 1.60867,0.85725 1.60867,2.180167 0,1.259417 -0.64559,2.116667 -1.60867,2.116667 -0.94192,0 -1.54517,-0.846667 -1.54517,-2.148417 0,-1.30175 0.60325,-2.148417 1.54517,-2.148417 z" />
      <path
         id="path971"
         style="font-style:normal;font-variant:normal;font-weight:normal;font-stretch:normal;font-family:'Nimbus Sans';-inkscape-font-specification:'Nimbus Sans';text-align:center;text-anchor:middle;fill:#ffffff;fill-opacity:1;stroke-width:0.26458332"
         d="m 123.72287,46.613243 c 0,-0.846667 -0.0635,-1.354667 -0.22225,-1.767417 -0.35984,-0.910166 -1.2065,-1.4605 -2.24367,-1.4605 -1.54517,0 -2.54,1.17475 -2.54,3.005667 0,1.830917 0.9525,2.942167 2.51883,2.942167 1.27,0 2.14842,-0.719667 2.37067,-1.926167 h -0.889 c -0.24342,0.73025 -0.74083,1.11125 -1.44992,1.11125 -0.56091,0 -1.03716,-0.254 -1.3335,-0.719667 -0.21166,-0.3175 -0.28575,-0.635 -0.29633,-1.185333 z m -4.064,-0.719667 c 0.0741,-1.026583 0.6985,-1.693333 1.5875,-1.693333 0.89958,0 1.524,0.6985 1.524,1.693333 z" />
      <path
         id="path973"
         style="font-style:normal;font-variant:normal;font-weight:normal;font-stretch:normal;font-family:'Nimbus Sans';-inkscape-font-specification:'Nimbus Sans';text-align:center;text-anchor:middle;fill:#ffffff;fill-opacity:1;stroke-width:0.26458332"
         d="m 124.90819,43.544076 v 5.545667 h 0.889 v -2.878667 c 0.0106,-1.3335 0.56092,-1.926166 1.778,-1.894416 v -0.899584 c -0.14816,-0.02117 -0.23283,-0.03175 -0.33866,-0.03175 -0.5715,0 -1.00542,0.338667 -1.51342,1.164167 v -1.005417 z" />
      <path
         id="path975"
         style="font-style:normal;font-variant:normal;font-weight:normal;font-stretch:normal;font-family:'Nimbus Sans';-inkscape-font-specification:'Nimbus Sans';text-align:center;text-anchor:middle;fill:#ffffff;fill-opacity:1;stroke-width:0.26458332"
         d="m 71.658245,61.989505 h -3.947584 c 0.09525,-0.635 0.433917,-1.037167 1.354667,-1.598083 l 1.058333,-0.592667 c 1.04775,-0.582083 1.5875,-1.36525 1.5875,-2.307167 0,-0.635 -0.254,-1.227666 -0.6985,-1.640416 -0.4445,-0.402167 -0.994833,-0.592667 -1.703916,-0.592667 -0.9525,0 -1.661584,0.338667 -2.074334,0.994833 -0.264583,0.402167 -0.381,0.878417 -0.402166,1.651 h 0.931333 c 0.03175,-0.518583 0.09525,-0.8255 0.22225,-1.0795 0.243417,-0.465666 0.73025,-0.751416 1.291167,-0.751416 0.846666,0 1.481666,0.613833 1.481666,1.439333 0,0.613833 -0.34925,1.143 -1.016,1.524 l -0.973666,0.5715 c -1.566334,0.899583 -2.021417,1.61925 -2.106084,3.291417 h 4.995334 z" />
      <path
         id="path977"
         style="font-style:normal;font-variant:normal;font-weight:normal;font-stretch:normal;font-family:'Nimbus Sans';-inkscape-font-specification:'Nimbus Sans';text-align:center;text-anchor:middle;fill:#ffffff;fill-opacity:1;stroke-width:0.26458332"
         d="m 75.097825,55.258505 c -0.6985,0 -1.3335,0.3175 -1.725083,0.836083 -0.486833,0.677334 -0.73025,1.693334 -0.73025,3.1115 0,2.582334 0.846667,3.947584 2.455333,3.947584 1.5875,0 2.455334,-1.36525 2.455334,-3.884084 0,-1.481666 -0.232834,-2.4765 -0.73025,-3.175 -0.391584,-0.529166 -1.016,-0.836083 -1.725084,-0.836083 z m 0,0.8255 c 1.005417,0 1.502834,1.026583 1.502834,3.100917 0,2.180166 -0.486834,3.196166 -1.524,3.196166 -0.98425,0 -1.481667,-1.058333 -1.481667,-3.164416 0,-2.106084 0.497417,-3.132667 1.502833,-3.132667 z" />
      <path
         id="path979"
         style="font-style:normal;font-variant:normal;font-weight:normal;font-stretch:normal;font-family:'Nimbus Sans';-inkscape-font-specification:'Nimbus Sans';text-align:center;text-anchor:middle;fill:#ffffff;fill-opacity:1;stroke-width:0.26458332"
         d="m 80.812823,57.459838 v 5.450417 h 0.931333 v -7.65175 h -0.613833 c -0.328084,1.17475 -0.53975,1.3335 -1.979083,1.524 v 0.677333 z" />
      <path
         id="path981"
         style="font-style:normal;font-variant:normal;font-weight:normal;font-stretch:normal;font-family:'Nimbus Sans';-inkscape-font-specification:'Nimbus Sans';text-align:center;text-anchor:middle;fill:#ffffff;fill-opacity:1;stroke-width:0.26458332"
         d="m 86.866487,55.258505 c -0.6985,0 -1.3335,0.3175 -1.725083,0.836083 -0.486834,0.677334 -0.73025,1.693334 -0.73025,3.1115 0,2.582334 0.846666,3.947584 2.455333,3.947584 1.5875,0 2.455333,-1.36525 2.455333,-3.884084 0,-1.481666 -0.232833,-2.4765 -0.73025,-3.175 -0.391583,-0.529166 -1.016,-0.836083 -1.725083,-0.836083 z m 0,0.8255 c 1.005417,0 1.502833,1.026583 1.502833,3.100917 0,2.180166 -0.486833,3.196166 -1.524,3.196166 -0.98425,0 -1.481666,-1.058333 -1.481666,-3.164416 0,-2.106084 0.497416,-3.132667 1.502833,-3.132667 z" />
      <path
         id="path983"
         style="font-style:normal;font-variant:normal;font-weight:normal;font-stretch:normal;font-family:'Nimbus Sans';-inkscape-font-specification:'Nimbus Sans';text-align:center;text-anchor:middle;fill:#ffffff;fill-opacity:1;stroke-width:0.26458332"
         d="m 92.846068,59.608255 h -2.518834 v 0.762 h 2.518834 z" />
      <path
         id="path985"
         style="font-style:normal;font-variant:normal;font-weight:normal;font-stretch:normal;font-family:'Nimbus Sans';-inkscape-font-specification:'Nimbus Sans';text-align:center;text-anchor:middle;fill:#ffffff;fill-opacity:1;stroke-width:0.26458332"
         d="m 98.719799,61.989505 h -3.947584 c 0.09525,-0.635 0.433917,-1.037167 1.354667,-1.598083 l 1.058333,-0.592667 c 1.04775,-0.582083 1.5875,-1.36525 1.5875,-2.307167 0,-0.635 -0.254,-1.227666 -0.6985,-1.640416 -0.4445,-0.402167 -0.994833,-0.592667 -1.703916,-0.592667 -0.9525,0 -1.661584,0.338667 -2.074334,0.994833 -0.264583,0.402167 -0.381,0.878417 -0.402166,1.651 h 0.931333 c 0.03175,-0.518583 0.09525,-0.8255 0.22225,-1.0795 0.243417,-0.465666 0.73025,-0.751416 1.291167,-0.751416 0.846666,0 1.481666,0.613833 1.481666,1.439333 0,0.613833 -0.34925,1.143 -1.016,1.524 l -0.973666,0.5715 c -1.566334,0.899583 -2.021417,1.61925 -2.106084,3.291417 h 4.995334 z" />
      <path
         id="path987"
         style="font-style:normal;font-variant:normal;font-weight:normal;font-stretch:normal;font-family:'Nimbus Sans';-inkscape-font-specification:'Nimbus Sans';text-align:center;text-anchor:middle;fill:#ffffff;fill-opacity:1;stroke-width:0.26458332"
         d="m 102.15938,55.258505 c -0.6985,0 -1.3335,0.3175 -1.72508,0.836083 -0.486837,0.677334 -0.730254,1.693334 -0.730254,3.1115 0,2.582334 0.846664,3.947584 2.455334,3.947584 1.5875,0 2.45533,-1.36525 2.45533,-3.884084 0,-1.481666 -0.23283,-2.4765 -0.73025,-3.175 -0.39158,-0.529166 -1.016,-0.836083 -1.72508,-0.836083 z m 0,0.8255 c 1.00542,0 1.50283,1.026583 1.50283,3.100917 0,2.180166 -0.48683,3.196166 -1.524,3.196166 -0.98425,0 -1.48166,-1.058333 -1.48166,-3.164416 0,-2.106084 0.49741,-3.132667 1.50283,-3.132667 z" />
      <path
         id="path989"
         style="font-style:normal;font-variant:normal;font-weight:normal;font-stretch:normal;font-family:'Nimbus Sans';-inkscape-font-specification:'Nimbus Sans';text-align:center;text-anchor:middle;fill:#ffffff;fill-opacity:1;stroke-width:0.26458332"
         d="m 110.48846,61.989505 h -3.94758 c 0.0952,-0.635 0.43391,-1.037167 1.35466,-1.598083 l 1.05834,-0.592667 c 1.04775,-0.582083 1.5875,-1.36525 1.5875,-2.307167 0,-0.635 -0.254,-1.227666 -0.6985,-1.640416 -0.4445,-0.402167 -0.99484,-0.592667 -1.70392,-0.592667 -0.9525,0 -1.66158,0.338667 -2.07433,0.994833 -0.26459,0.402167 -0.381,0.878417 -0.40217,1.651 h 0.93133 c 0.0318,-0.518583 0.0953,-0.8255 0.22225,-1.0795 0.24342,-0.465666 0.73025,-0.751416 1.29117,-0.751416 0.84667,0 1.48167,0.613833 1.48167,1.439333 0,0.613833 -0.34925,1.143 -1.016,1.524 l -0.97367,0.5715 c -1.56633,0.899583 -2.02142,1.61925 -2.10608,3.291417 h 4.99533 z" />
      <path
         id="path991"
         style="font-style:normal;font-variant:normal;font-weight:normal;font-stretch:normal;font-family:'Nimbus Sans';-inkscape-font-specification:'Nimbus Sans';text-align:center;text-anchor:middle;fill:#ffffff;fill-opacity:1;stroke-width:0.26458332"
         d="m 113.75871,57.459838 v 5.450417 h 0.93133 v -7.65175 h -0.61383 c -0.32809,1.17475 -0.53975,1.3335 -1.97909,1.524 v 0.677333 z" />
      <path
         id="path993"
         style="font-style:normal;font-variant:normal;font-weight:normal;font-stretch:normal;font-family:'Nimbus Sans';-inkscape-font-specification:'Nimbus Sans';text-align:center;text-anchor:middle;fill:#ffffff;fill-opacity:1;stroke-width:0.26458332"
         d="m 65.467023,71.28035 c 0,-0.529166 -0.03175,-0.677333 -0.201083,-1.037166 -0.423334,-0.889 -1.322917,-1.354667 -2.624667,-1.354667 -1.693333,0 -2.741083,0.867833 -2.741083,2.264833 0,0.941917 0.497416,1.534584 1.513416,1.799167 l 1.915584,0.508 c 0.98425,0.254 1.418166,0.645583 1.418166,1.248833 0,0.41275 -0.22225,0.836084 -0.550333,1.068917 -0.306917,0.22225 -0.79375,0.328083 -1.418167,0.328083 -0.846666,0 -1.407583,-0.201083 -1.778,-0.645583 -0.28575,-0.338667 -0.41275,-0.709083 -0.402166,-1.185333 h -0.931333 c 0.01058,0.709083 0.148166,1.17475 0.455083,1.598083 0.529166,0.73025 1.418166,1.100666 2.592916,1.100666 0.92075,0 1.672167,-0.211666 2.169584,-0.592666 0.518583,-0.41275 0.846666,-1.100667 0.846666,-1.767417 0,-0.9525 -0.592666,-1.651 -1.640416,-1.93675 l -1.93675,-0.518583 c -0.931334,-0.254 -1.27,-0.550333 -1.27,-1.143 0,-0.783167 0.687916,-1.30175 1.725083,-1.30175 1.227667,0 1.915583,0.550333 1.926167,1.566333 z" />
      <path
         id="path995"
         style="font-style:normal;font-variant:normal;font-weight:normal;font-stretch:normal;font-family:'Nimbus Sans';-inkscape-font-specification:'Nimbus Sans';text-align:center;text-anchor:middle;fill:#ffffff;fill-opacity:1;stroke-width:0.26458332"
         d="m 69.414601,73.428767 h -2.518834 v 0.762 h 2.518834 z" />
      <path
         id="path997"
         style="font-style:normal;font-variant:normal;font-weight:normal;font-stretch:normal;font-family:'Nimbus Sans';-inkscape-font-specification:'Nimbus Sans';text-align:center;text-anchor:middle;fill:#ffffff;fill-opacity:1;stroke-width:0.26458332"
         d="m 70.673999,71.1851 v 5.545667 h 0.889 V 73.24885 c 0,-0.804333 0.582084,-1.449916 1.30175,-1.449916 0.656167,0 1.026584,0.402166 1.026584,1.11125 v 3.820583 h 0.888999 V 73.24885 c 0,-0.804333 0.582084,-1.449916 1.30175,-1.449916 0.645584,0 1.026584,0.41275 1.026584,1.11125 v 3.820583 h 0.889 v -4.15925 c 0,-0.994833 -0.5715,-1.545167 -1.608667,-1.545167 -0.740833,0 -1.185333,0.22225 -1.703917,0.846667 -0.328083,-0.592667 -0.772583,-0.846667 -1.492249,-0.846667 -0.740834,0 -1.23825,0.275167 -1.703917,0.941917 V 71.1851 Z" />
      <path
         id="path999"
         style="font-style:normal;font-variant:normal;font-weight:normal;font-stretch:normal;font-family:'Nimbus Sans';-inkscape-font-specification:'Nimbus Sans';text-align:center;text-anchor:middle;fill:#ffffff;fill-opacity:1;stroke-width:0.26458332"
         d="m 84.411146,76.212183 c -0.09525,0.02117 -0.137583,0.02117 -0.1905,0.02117 -0.306917,0 -0.47625,-0.15875 -0.47625,-0.433917 v -3.259666 c 0,-0.98425 -0.719667,-1.513417 -2.084916,-1.513417 -0.814917,0 -1.4605,0.232834 -1.8415,0.645584 -0.254,0.28575 -0.359834,0.60325 -0.381,1.153583 h 0.889 c 0.07408,-0.677333 0.47625,-0.98425 1.30175,-0.98425 0.804333,0 1.238249,0.296333 1.238249,0.8255 V 72.8996 c -0.01058,0.381 -0.201083,0.518584 -0.920749,0.613834 -1.248834,0.15875 -1.439334,0.201083 -1.778,0.338666 -0.645584,0.275167 -0.973667,0.762 -0.973667,1.481667 0,1.005416 0.6985,1.640416 1.820333,1.640416 0.6985,0 1.259417,-0.243416 1.883833,-0.814916 0.0635,0.5715 0.338667,0.814916 0.910167,0.814916 0.1905,0 0.306917,-0.02117 0.60325,-0.09525 z m -1.545167,-1.227666 c 0,0.296333 -0.08467,0.47625 -0.349249,0.719666 -0.359834,0.328084 -0.79375,0.497417 -1.312334,0.497417 -0.687916,0 -1.090083,-0.328083 -1.090083,-0.889 0,-0.582083 0.381,-0.878416 1.3335,-1.016 0.941917,-0.127 1.121833,-0.169333 1.418166,-0.306916 z" />
      <path
         id="path1001"
         style="font-style:normal;font-variant:normal;font-weight:normal;font-stretch:normal;font-family:'Nimbus Sans';-inkscape-font-specification:'Nimbus Sans';text-align:center;text-anchor:middle;fill:#ffffff;fill-opacity:1;stroke-width:0.26458332"
         d="m 85.204894,79.037933 h 0.889 v -2.88925 c 0.465666,0.5715 0.98425,0.8255 1.703916,0.8255 1.439334,0 2.370667,-1.153583 2.370667,-2.920999 0,-1.862667 -0.910167,-3.026834 -2.38125,-3.026834 -0.751417,0 -1.354667,0.338667 -1.767417,0.994834 V 71.1851 H 85.204894 Z M 87.63906,71.85185 c 0.973667,0 1.608667,0.85725 1.608667,2.180167 0,1.259417 -0.645583,2.116666 -1.608667,2.116666 -0.941916,0 -1.545166,-0.846666 -1.545166,-2.148416 0,-1.30175 0.60325,-2.148417 1.545166,-2.148417 z" />
      <path
         id="path1003"
         style="font-style:normal;font-variant:normal;font-weight:normal;font-stretch:normal;font-family:'Nimbus Sans';-inkscape-font-specification:'Nimbus Sans';text-align:center;text-anchor:middle;fill:#ffffff;fill-opacity:1;stroke-width:0.26458332"
         d="m 97.576806,68.888517 c -2.211916,0 -3.71475,1.629833 -3.71475,4.042833 0,2.423584 1.49225,4.042833 3.725334,4.042833 0.941916,0 1.767416,-0.28575 2.391833,-0.814916 0.836087,-0.709083 1.333497,-1.905 1.333497,-3.164417 0,-2.487083 -1.47108,-4.106333 -3.735914,-4.106333 z m 0,0.867833 c 1.672167,0 2.751664,1.259417 2.751664,3.217334 0,1.862666 -1.111247,3.132666 -2.74108,3.132666 -1.651,0 -2.741084,-1.27 -2.741084,-3.175 0,-1.905 1.090084,-3.175 2.7305,-3.175 z" />
      <path
         id="path1005"
         style="font-style:normal;font-variant:normal;font-weight:normal;font-stretch:normal;font-family:'Nimbus Sans';-inkscape-font-specification:'Nimbus Sans';text-align:center;text-anchor:middle;fill:#ffffff;fill-opacity:1;stroke-width:0.26458332"
         d="m 102.43456,71.1851 v 5.545667 h 0.889 v -3.058583 c 0,-1.132417 0.59266,-1.87325 1.50283,-1.87325 0.6985,0 1.143,0.423333 1.143,1.090083 v 3.84175 h 0.87842 v -4.191 c 0,-0.92075 -0.68792,-1.513417 -1.75684,-1.513417 -0.8255,0 -1.35466,0.3175 -1.8415,1.090084 V 71.1851 Z" />
      <path
         id="path1007"
         style="font-style:normal;font-variant:normal;font-weight:normal;font-stretch:normal;font-family:'Nimbus Sans';-inkscape-font-specification:'Nimbus Sans';text-align:center;text-anchor:middle;fill:#ffffff;fill-opacity:1;stroke-width:0.26458332"
         d="m 109.18672,69.015517 h -0.889 v 7.71525 h 0.889 z" />
      <path
         id="path1009"
         style="font-style:normal;font-variant:normal;font-weight:normal;font-stretch:normal;font-family:'Nimbus Sans';-inkscape-font-specification:'Nimbus Sans';text-align:center;text-anchor:middle;fill:#ffffff;fill-opacity:1;stroke-width:0.26458332"
         d="m 111.51503,71.1851 h -0.87841 v 5.545667 h 0.87841 z m 0,-2.169583 h -0.889 v 1.11125 h 0.889 z" />
      <path
         id="path1011"
         style="font-style:normal;font-variant:normal;font-weight:normal;font-stretch:normal;font-family:'Nimbus Sans';-inkscape-font-specification:'Nimbus Sans';text-align:center;text-anchor:middle;fill:#ffffff;fill-opacity:1;stroke-width:0.26458332"
         d="m 113.01785,71.1851 v 5.545667 h 0.889 v -3.058583 c 0,-1.132417 0.59266,-1.87325 1.50283,-1.87325 0.6985,0 1.143,0.423333 1.143,1.090083 v 3.84175 h 0.87842 v -4.191 c 0,-0.92075 -0.68792,-1.513417 -1.75684,-1.513417 -0.8255,0 -1.35466,0.3175 -1.8415,1.090084 V 71.1851 Z" />
      <path
         id="path1013"
         style="font-style:normal;font-variant:normal;font-weight:normal;font-stretch:normal;font-family:'Nimbus Sans';-inkscape-font-specification:'Nimbus Sans';text-align:center;text-anchor:middle;fill:#ffffff;fill-opacity:1;stroke-width:0.26458332"
         d="m 123.59059,74.254267 c 0,-0.846667 -0.0635,-1.354667 -0.22225,-1.767417 -0.35983,-0.910166 -1.2065,-1.4605 -2.24366,-1.4605 -1.54517,0 -2.54,1.17475 -2.54,3.005667 0,1.830916 0.9525,2.942166 2.51883,2.942166 1.27,0 2.14842,-0.719666 2.37067,-1.926166 h -0.889 c -0.24342,0.73025 -0.74084,1.11125 -1.44992,1.11125 -0.56092,0 -1.03717,-0.254 -1.3335,-0.719667 -0.21167,-0.3175 -0.28575,-0.635 -0.29633,-1.185333 z m -4.064,-0.719667 c 0.0741,-1.026583 0.6985,-1.693333 1.5875,-1.693333 0.89959,0 1.524,0.6985 1.524,1.693333 z" />
    </g>
    <flowRoot
       style="fill:black;fill-opacity:1;stroke:none;font-family:sans-serif;font-style:normal;font-weight:normal;font-size:40px;line-height:1.25;letter-spacing:0px;word-spacing:0px"
       id="flowRoot4558"
       xml:space="preserve"><flowRegion
         id="flowRegion4560"><rect
           y="-38.745289"
           x="-50.572369"
           height="347.9379"
           width="429.52798"
           id="rect4562" /></flowRegion><flowPara
         id="flowPara4564" /></flowRoot>  </g>
</svg>
